/* XPM */
static char *b53b5de7a6ea4b4c87b9288c4423da856rcoTwbb6iFPHiiT[] = {
/* columns rows colors chars-per-pixel */
"32 32 28 1 ",
"  c #4C4C4C",
". c gray30",
"X c #535353",
"o c gray33",
"O c #5A5A5A",
"+ c gray37",
"@ c #626262",
"# c #646464",
"$ c #686868",
"% c #6D6D6D",
"& c gray45",
"* c #777777",
"= c gray48",
"- c gray49",
"; c gray51",
": c #868686",
"> c #898989",
", c gray56",
"< c #929292",
"1 c gray59",
"2 c #9A9A9A",
"3 c gray61",
"4 c #A0A0A0",
"5 c #A5A5A5",
"6 c #A9A9A9",
"7 c #ACACAC",
"8 c gray69",
"9 c gray75",
/* pixels */
":--O@@8866--o&6655--#OXX5,,%4588",
"--X+@8878:;X&464843--@OXXO%5585>",
">>O@7674:>-X664:683,::@@@O45,-;;",
">-O6673:>->X64:::5,,,:o@@@24:;-;",
"-O643->=--&X663<<--::,Xo#@@14;:>",
"o@43>-=-:&Xo64<<:,-;,:Xo##@@21;;",
"@@@33:=-=&oo;2-;,:;--XOo55@@@XXX",
"+++@32>=&ooo-;=;;,-;.o55555@@@@@",
"245oOooooX$$@=-;-=Xo66622;-;@@&%",
"2766o+@++++$$o==XXo66222---;-@%2",
"87:=o+574543@$oooo9933-;>>,-:>o8",
"8;==O4757373-@OO$o933;:,,::<::o=",
"==*o+3443:;==-oo@@o,;:,,:,<:>XO*",
"**o++X33;;==-.o@@@#o-,,:,,:<X+OO",
"Oo+=**X..X...o#>>3;@ooX>::XX++#$",
"++=444oooooOX>>>363;;+@XXX+++$$#",
"@+546644;O++>7326663<,-@2>,O##@$",
"@@46663:;;++%>126776<-%,33>,O@@@",
"++33>>:;-,.@X$$>3663:%;>,..OO866",
"X@-;-:-:,=X@@OX>>>3:>%$;.X@87666",
"XXo::-;,=.+@@@$+X&-*--;.X@87663:",
"XXOo;-==.+@@@$$$OX*--*.O+88633;;",
"oo+OXXXX+@@448;;;O.XOOO@<763<<;-",
"Xo@+ooOO@@54877;&&*.@@@<883;<;;=",
"o@4322:OOO-;572,7766@@@<66<;:<=o",
"#332422:OO.-22,,36326@@<<6;:;;oO",
"4465,,::#OOX##*&;3,2;*@O==::--o#",
"55424,,*;#@oX.#*#*;:-=&OO==;=o+#",
"#=>,24;-&*--oOX...*--*&O%+ooo+##",
"##**>2;:&=-==o++@O.X&*O@@%####@@",
">:oo**:*;-*Oo$$5--+OX.$@44,@@@;;",
";:-ooooXoooo$#453;-OOO@5854,@4,;"
};
