/* XPM */
static char *_c339a44f76e4e56c0e1a32811edfd4fvah6e0y8tlErPATd[] = {
/* columns rows colors chars-per-pixel */
"32 32 9 1 ",
"  c #686868",
". c #747474",
"X c gray50",
"o c #77CEFB",
"O c #5DECF5",
"+ c #808080",
"@ c gray56",
"# c #C7E7FE",
"$ c white",
/* pixels */
"XX........XX@@@   @@XX........XX",
"XXX......XX@@@@@@ .@@XX.. .....X",
".XXXX@@@@@@@@@@....@@@@@  XXX...",
". XXXX@@@O@@@.....@@@@@@@ .XXX..",
"X. ....$#oo@.....@@@XXXX$#o@@XXX",
"X   ....oO ....#o@@....O#oOoXXXX",
"XX.@@XXXX   X$#o##.......O.@...X",
".@@@@X.XXXX XX##OXXX..@.@.......",
"XX@@@....XXXX.....@@@@@@@@@@@@  ",
"XXXX@@.............@@@@@@@@@@   ",
"......X....$$$...XX X$##...o  XX",
"..@..XXXX$$###o.XX  $#o#O.@@.XX.",
"X@.@XX+$$##oooOO@XX##ooOO@@@   X",
"@ @@@X++#oooOO@.XXXXooOO@@@@@@  ",
"XXXXX.......@@..... .......@XXXX",
"XX......@........ X .....@..XXXX",
"XX@#o@@ @@....XXX$$#@@@@@@@@@@XX",
"@X$ooO@  @@.XXX$$###O@@@@@@@@@@@",
"X..O@... .....$###ooOO....@@@@@X",
"XXX............#ooOOX.......@XXX",
"XXXX@@..#o.@@.... ....@@@..XXXXX",
"XXXXX@@.o.@@@@..  ..@@@@@@XXXXXX",
"  XXXXX@..XXXXXXX@@@@X$$OO@@@@  ",
"    XX.....XXX..@@@$$$##ooO@@@@ ",
"................@$$###oooooO.XXX",
"XX.....$#.......$####oooooOO...@",
"@X@@@@$#ooO@XXX..OOoooOOOOXXXX@@",
"XXX@@..ooO@XXX...X.OOOO.XXXX@@@@",
"XXXX..............@@@@@@XX....XX",
"XXXXXXX.........XXXX@@@X.....XXX",
"........  @@@@XXXXXXXX.X.....XXX",
".......  @@@@@@@XXXXX.......XX.."
};
