/* XPM */
static char *_72a4ed1944b4fe9b4a70a975bfe6400lydKS4wBu835KEfa[] = {
/* columns rows colors chars-per-pixel */
"32 32 55 1 ",
"  c #00AC9F",
". c #00ADA0",
"X c #00B2A6",
"o c #01B5AA",
"O c #00B8AD",
"+ c #01BDB3",
"@ c #00C1B7",
"# c #01C5BB",
"$ c #0FC6BD",
"% c #0AC8BF",
"& c #13C0B7",
"* c #22C6BD",
"= c #33C6BD",
"- c #39C7BE",
"; c #3DC8BF",
": c #04C9C1",
"> c #0BCAC2",
", c #13CCC4",
"< c #1BCEC6",
"1 c #1FCFC8",
"2 c #24CBC3",
"3 c #28CCC4",
"4 c #33CEC6",
"5 c #37CFC9",
"6 c #25D1C9",
"7 c #2BD2CB",
"8 c #32D3CC",
"9 c #3DD2CB",
"0 c #42CAC2",
"q c #42D3CD",
"w c #49D5CE",
"e c #43D7D0",
"r c #4AD7D0",
"t c #47D8D1",
"y c #4CD8D2",
"u c #53DAD4",
"i c #5CDCD7",
"p c #5FDCD8",
"a c #65DED9",
"s c #69DFDA",
"d c #6DE0DB",
"f c #74E1DD",
"g c #7BE3DE",
"h c #7FE4E0",
"j c #80E3DF",
"k c #84E5E1",
"l c #8BE6E2",
"z c #8FE8E4",
"x c #90E7E3",
"c c #93E8E5",
"v c #9BEAE6",
"b c #9FEBE8",
"n c #A1EBE7",
"m c #A3EBE8",
"M c #AAEDEA",
/* pixels */
"..........oO@@@@@O@O@@##%:,<<<$@",
"o=====-;000qqqqq999qqeeeeetttt5+",
"+5dddffjjlcjjjjjjjgjkkkjgggfds5+",
"+9ghghklzcjjlllljjjjjlzkjgffsa4@",
"#ellzlllzzjzzczzcjjjcclkjgfsaa4+",
"#tccxxzczccvccccxcxjjjlljggffd5@",
"#tzcclllccccvvcccxjxjjjjgggggg9+",
"#wcczccxjxcvvccccccjzjjjggggfg9+",
"#tcczzjjlzccccccxxxllkjjggffgf9@",
"#wvczjgggjlzzclllxlllkkjjjggfg9@",
"@yvczgdddfjjjjljllllkkljlkjjgg9#",
"#tccjgfffggjljjlllklkljllkkjgg9@",
"#wcjjjjgggfggjjjjlljjjllllkjff9@",
"@tvjcjjjfdddggffggjgjgjkkkkgff8@",
"#ycxcjjgfdddddddddfffgggjkhgdd4@",
"#yvccjjjfddpddpdaassssffggddiu3+",
"+rvvvlkllhsaaaaaaaasssssfsaiut<+",
":rvbvlkcvlhssffffffffffdffdauu2O",
":rvbblklcclkkkkkljjllllklkjgfd5+",
":rbmmcllvvvccccvcvcvvvvbvvcxkkq+",
"#ymmMmbbvnnnmmnmnnnnbbnmmvvclk9+",
":ymMMMMMmnnmmmmMnnnbbbnnnvckfa3o",
":uMMMMMMMMMmMMMmmnnbbvvvlkfdut*o",
"#uMMMMMMMMMMMMmmnnbbvvckfauq87&X",
":uMMmmmMMMMMMMmmbbvczzkdu971,>#o",
"#ummmmmmMMMMMMmbvczzkhsu96,>::+o",
":ummvbbbmmMMMmmvczlhdau97<>>::+X",
"#umvcxxvmmnmmmbvclhfat9861,>>>OX",
"#ybcxllxccvcccxllhhsu97<,,$$$$+.",
"+rvxlkkklllllkkkhhhdy8<<>%%%##O ",
"@rrreq99qqqeee9e99886<>%##@@@@+X",
"#+#++#++#++#:++#@:::######@@++O+"
};
