/* XPM */
static char *dca4c246f575483ae129fd793904d4995cLPeifNCZlfXKTR[] = {
/* columns rows colors chars-per-pixel */
"32 32 20 1 ",
"  c None",
". c #5F277D",
"X c #B70520",
"o c #CE0624",
"O c #E20627",
"+ c #954DBB",
"@ c #BE95D4",
"# c #9CBDC1",
"$ c #CFB2DD",
"% c #B3D8DD",
"& c #B4DADF",
"* c #B6DEE4",
"= c #DCC7E6",
"- c #C3F3FB",
"; c #EDE5F1",
": c #E5FAFE",
"> c #EDFBFE",
", c #F5FCFE",
"< c #F9FDFE",
"1 c #FDFDFE",
/* pixels */
"                                ",
"                                ",
"                                ",
"   1<<:: <<<<<<<<<<<<<<<<<<<-   ",
"   <# # # # # # # # # # # # *   ",
"   <           @.          #*   ",
"   <#          @.               ",
"   <          @=+.         #%   ",
"   <#         @=+.          %   ",
"   <         $===+.        #%   ",
"   <#        ;$O=+.             ",
"   <        $;$O==$.       #%   ",
"    #      $;$@O@==$..      *   ",
"   <     $;;$@@O@@==++..   #*   ",
"   ,#  @@=$$@@@O+@@===++..  %   ",
"   , @@$$$OOOOOXoOOOO==@++.#%   ",
"   <#..++$$$@@+o++@$$@++..  &   ",
"   <   ..+@$$@@O+@$@++..   #&   ",
"   >#    ..@$$@O@$@+..          ",
"   >       .@$$O$@+.       #%   ",
"    #       .@$O$+.         %   ",
"   <        .+$$@+.        #    ",
"   <#        .@$+.          %   ",
"             .+$+.         #%   ",
"   <#         .+.           %   ",
"              .+.          #%   ",
"   >#          .                ",
"   > # # # # # # # # # # # #%   ",
"   -%%%%%%%% %% %%**% %%%%%%%   ",
"                                ",
"                                ",
"                                "
};
