/* XPM */
static char *_1b8c20f21c84385a052d4961901f7e2OQ5euFaOJlgrm0SJ[] = {
/* columns rows colors chars-per-pixel */
"32 32 96 2 ",
"   c #5C3F2B",
".  c #5D402B",
"X  c #5D4432",
"o  c #61432D",
"O  c #63452E",
"+  c #64452F",
"@  c #654630",
"#  c #674731",
"$  c #694931",
"%  c #6B4B33",
"&  c #6C4C33",
"*  c #6D4C34",
"=  c #694E3B",
"-  c #704E35",
";  c #714F36",
":  c #6D513D",
">  c #745137",
",  c #755238",
"<  c #775439",
"1  c #79553A",
"2  c #7C573B",
"3  c #78563D",
"4  c #7E593D",
"5  c #477A26",
"6  c #487A27",
"7  c #497C28",
"8  c #4B7E2B",
"9  c #4C7F2B",
"0  c #645144",
"q  c #6A5241",
"w  c #685446",
"e  c #765B47",
"r  c #7D5C43",
"t  c #7D5D46",
"y  c #725D4E",
"u  c #7D624D",
"i  c #67605B",
"p  c #6F665F",
"a  c #776C63",
"s  c #7F7268",
"d  c #805B3E",
"f  c #825C3F",
"g  c #876042",
"h  c #896143",
"j  c #8F6646",
"k  c #85634A",
"l  c #8D6748",
"z  c #926948",
"x  c #966B4A",
"c  c #966C4A",
"v  c #986D4B",
"b  c #9F724E",
"n  c #9F724F",
"m  c #8B6C53",
"M  c #9D7251",
"N  c #927359",
"B  c #A47551",
"V  c #A47651",
"C  c #A67752",
"Z  c #A87953",
"A  c #AF7E57",
"S  c #A17C5D",
"D  c #837A74",
"F  c #A27E62",
"G  c #4D802C",
"H  c #4E802D",
"J  c #4F812E",
"K  c #509026",
"L  c #57972D",
"P  c #518430",
"I  c #5D9D33",
"U  c #5F9F35",
"Y  c #60A036",
"T  c #62A238",
"R  c #64A43A",
"E  c #65A53B",
"W  c #66A63C",
"Q  c #68A83E",
"!  c #69A93F",
"~  c #6BAB41",
"^  c #6CAC42",
"/  c #6EAE44",
"(  c #79A849",
")  c #70B046",
"_  c #73B349",
"`  c #74B44A",
"'  c #76B64C",
"]  c #79B94F",
"[  c #7EBE54",
"{  c #8AB95A",
"}  c #8B8078",
"|  c #90BF60",
" . c #84C45A",
".. c #92C162",
"X. c #93C263",
"o. c #97C667",
/* pixels */
"` ' ` ' { W W W  . .E Y Y Y ^ ` ^ ^ ) ` ' | ! R ! ! T Q Y K { ! ",
"E ! ! { { ` ' W E Y ( Y I ] Y  .Y ..`  ...! ! ` ' Y K Y ^ K / [ ",
"~ ` ' ~ { _ { [ ] ( ( o Y ^ ^ ] I { ..` ..` Q _ Q ! ' ' K W ! ! ",
"8 ` 9 9 ~ { { W ] Y   & ] ] Y 9 U Y ` .. ._ X._ 9 ' L Q ^ U G G ",
"O H . o 5 I E ` ] ! % e G ) 9 O [  .X._  .X.o.G . G G W Q 5 O . ",
", O * w . 6 6 9 ! ! 1 - . G . d _ ) P P ! X.G o O . O G 5 O > - ",
"n * p p r O . o ] 9 > b &   d x G 5 . . G ! O 4 g % 4 O O < 1 c ",
"B 1 s h c 4 2 2 7   d - 1 & B x 5 . 4 , . G 0 j 4 f c < > % f 4 ",
"x < 1 c j v d v O $ - j 1 1 > 1 O , & > # X i y 2 f c 1 % < * 1 ",
"x c * j z f f j d $ $ j h h 1 & # * O 1 1 o i u 1 1 1 < < < b V ",
"c 4 * B h j B v h h b j x & : & 4 f 1 b h 1 d d > g n 2 4 V S j ",
"4 < % c v f j v z d v j & & < > d 1 1 V 2 h - - : 2 4 j > c 1 h ",
"B > - % 4 f h z D D 1 1 1 1 h A n c 4 1 V V } b % 1 j j 1 1 b b ",
"n B 1 % M 1 f D D - h - 1 h C B j C 1 1 l n b Z 1 g h g j h c c ",
"4 n - h n c 1 > 1 j 1 > b 1 d x c j % n j g j g 1 1 j > j n 4 c ",
"4 1 h c 4 n } Z c c 1 j d d 1 > c j n x c 1 N f 4 V 1 1 4 c j h ",
"B 4 f 1 1 h c c j j h j j h 1 , > c c 1 j n d f j 1 - 1 % h 1 h ",
"< c h > 1 c u f 1 h c j j 4 % # 1 4 g j j d v - 1 h C b 1 - % - ",
"h j 1 % > j j 1 h j j j # # h 1 h 1 j > d d > d A b b j > d n 1 ",
"4 e n 1 * % 1 h f 4 % * % h 4 1 4 e h < C j d f x x j x 1 h x j ",
"4 1 c M > 4 n n 4 - 1 e B B g j d & C } n v - d d g j m D } h 1 ",
"1 h c 4 1 c g x c n 1 c b j j > & # C x j v f O g j j h 1 D 1 b ",
"b > j 1 u 1 n n n n A A 1 4 j a s i j j v j d - > j b h j - 1 d ",
"B j h h 4 c j j C h c C b 1 C c s p h M v d > d - # x d 1 & - - ",
"c < % c j c j > j x c j B n - 1 d 1 1 r j x 1 - 1 f f v C v $ v ",
"4 4 h j n > % j j l 1 j n A M 4 d d - 1 1 - > 1 j 1 b b b C j v ",
"f c j M h 1 h 4 : k k j 2 x F 1 C d % h h B , d - h } j d v v j ",
"c n j 4 c h 1 V y t f j h 4 1 > d 1 & * B A 1 , : 4 Z z f v d f ",
"j f d > f V } z 1 1 * * 1 1 , d 1 - d b C d b 1 1 1 d j j j b b ",
"d x j d 3 n v b j - , * 1 h d - & C b 1 1 1 d x j & b > d b d v ",
"x j - h b x j f j 1 j 1 1 D d d Z C - B b h d & j j j - d $ - d ",
"v > h d B j b f x x j x D D 1 - x j v x d 1 f d v v j j j f $ + "
};
